<?xml version="1.0" encoding="UTF-8" standalone="no"?>
<!DOCTYPE svg PUBLIC "-//W3C//DTD SVG 1.1//EN"
 "http://www.w3.org/Graphics/SVG/1.1/DTD/svg11.dtd">
<!-- Generated by graphviz version 2.30.1 (20130214.1330)
 -->
<!-- Title: models_diagram Pages: 1 -->
<svg width="1061pt" height="1402pt"
 viewBox="0.00 0.00 1061.00 1402.00" xmlns="http://www.w3.org/2000/svg" xmlns:xlink="http://www.w3.org/1999/xlink">
<g id="graph0" class="graph" transform="scale(1 1) rotate(0) translate(4 1398)">
<title>models_diagram</title>
<polygon fill="white" stroke="white" points="-4,5 -4,-1398 1058,-1398 1058,5 -4,5"/>
<!-- Address -->
<g id="node1" class="node"><title>Address</title>
<path fill="none" stroke="black" d="M12,-0.5C12,-0.5 140,-0.5 140,-0.5 146,-0.5 152,-6.5 152,-12.5 152,-12.5 152,-169.5 152,-169.5 152,-175.5 146,-181.5 140,-181.5 140,-181.5 12,-181.5 12,-181.5 6,-181.5 0,-175.5 0,-169.5 0,-169.5 0,-12.5 0,-12.5 0,-6.5 6,-0.5 12,-0.5"/>
<text text-anchor="middle" x="76" y="-166.3" font-family="Times New Roman,serif" font-size="14.00">Address</text>
<polyline fill="none" stroke="black" points="0,-158.5 152,-158.5 "/>
<text text-anchor="start" x="8" y="-143.3" font-family="Times New Roman,serif" font-size="14.00">id :integer</text>
<text text-anchor="start" x="8" y="-128.3" font-family="Times New Roman,serif" font-size="14.00">line1 :string</text>
<text text-anchor="start" x="8" y="-113.3" font-family="Times New Roman,serif" font-size="14.00">line2 :string</text>
<text text-anchor="start" x="8" y="-98.3" font-family="Times New Roman,serif" font-size="14.00">city :string</text>
<text text-anchor="start" x="8" y="-83.3" font-family="Times New Roman,serif" font-size="14.00">state :string</text>
<text text-anchor="start" x="8" y="-68.3" font-family="Times New Roman,serif" font-size="14.00">postal_code :string</text>
<text text-anchor="start" x="8" y="-53.3" font-family="Times New Roman,serif" font-size="14.00">addressable_id :integer</text>
<text text-anchor="start" x="8" y="-38.3" font-family="Times New Roman,serif" font-size="14.00">addressable_type :string</text>
<text text-anchor="start" x="8" y="-23.3" font-family="Times New Roman,serif" font-size="14.00">created_at :datetime</text>
<text text-anchor="start" x="8" y="-8.3" font-family="Times New Roman,serif" font-size="14.00">updated_at :datetime</text>
</g>
<!-- Appointment -->
<g id="node2" class="node"><title>Appointment</title>
<path fill="none" stroke="black" d="M305.5,-1137C305.5,-1137 430.5,-1137 430.5,-1137 436.5,-1137 442.5,-1143 442.5,-1149 442.5,-1149 442.5,-1381 442.5,-1381 442.5,-1387 436.5,-1393 430.5,-1393 430.5,-1393 305.5,-1393 305.5,-1393 299.5,-1393 293.5,-1387 293.5,-1381 293.5,-1381 293.5,-1149 293.5,-1149 293.5,-1143 299.5,-1137 305.5,-1137"/>
<text text-anchor="middle" x="368" y="-1377.8" font-family="Times New Roman,serif" font-size="14.00">Appointment</text>
<polyline fill="none" stroke="black" points="293.5,-1370 442.5,-1370 "/>
<text text-anchor="start" x="301.5" y="-1354.8" font-family="Times New Roman,serif" font-size="14.00">id :integer</text>
<text text-anchor="start" x="301.5" y="-1339.8" font-family="Times New Roman,serif" font-size="14.00">subscription_id :integer</text>
<text text-anchor="start" x="301.5" y="-1324.8" font-family="Times New Roman,serif" font-size="14.00">start_time :datetime</text>
<text text-anchor="start" x="301.5" y="-1309.8" font-family="Times New Roman,serif" font-size="14.00">end_time :datetime</text>
<text text-anchor="start" x="301.5" y="-1294.8" font-family="Times New Roman,serif" font-size="14.00">paid :boolean</text>
<text text-anchor="start" x="301.5" y="-1279.8" font-family="Times New Roman,serif" font-size="14.00">cancelled :boolean</text>
<text text-anchor="start" x="301.5" y="-1264.8" font-family="Times New Roman,serif" font-size="14.00">assigned :boolean</text>
<text text-anchor="start" x="301.5" y="-1249.8" font-family="Times New Roman,serif" font-size="14.00">created_at :datetime</text>
<text text-anchor="start" x="301.5" y="-1234.8" font-family="Times New Roman,serif" font-size="14.00">updated_at :datetime</text>
<text text-anchor="start" x="301.5" y="-1219.8" font-family="Times New Roman,serif" font-size="14.00">customer_id :integer</text>
<text text-anchor="start" x="301.5" y="-1204.8" font-family="Times New Roman,serif" font-size="14.00">requests :text</text>
<text text-anchor="start" x="301.5" y="-1189.8" font-family="Times New Roman,serif" font-size="14.00">confirmed :boolean</text>
<text text-anchor="start" x="301.5" y="-1174.8" font-family="Times New Roman,serif" font-size="14.00">price :decimal</text>
<text text-anchor="start" x="301.5" y="-1159.8" font-family="Times New Roman,serif" font-size="14.00">notes :text</text>
<text text-anchor="start" x="301.5" y="-1144.8" font-family="Times New Roman,serif" font-size="14.00">service_type_id :integer</text>
</g>
<!-- Appointment&#45;&gt;Address -->
<g id="edge1" class="edge"><title>Appointment&#45;&gt;Address</title>
<path fill="none" stroke="#756837" d="M285.588,-1231.52C187.845,-1186.93 38,-1096.77 38,-963 38,-963 38,-963 38,-362 38,-304.486 46.5597,-240.746 55.554,-189.646"/>
<ellipse fill="none" stroke="#756837" cx="289.471" cy="-1233.27" rx="4.00002" ry="4.00002"/>
<ellipse fill="#756837" stroke="#756837" cx="56.2961" cy="-185.494" rx="4.00001" ry="4.00001"/>
<text text-anchor="middle" x="60" y="-655.3" font-family="Times New Roman,serif" font-size="14.00">address</text>
</g>
<!-- User -->
<g id="node10" class="node"><title>User</title>
<path fill="none" stroke="black" d="M367,-826.5C367,-826.5 549,-826.5 549,-826.5 555,-826.5 561,-832.5 561,-838.5 561,-838.5 561,-1085.5 561,-1085.5 561,-1091.5 555,-1097.5 549,-1097.5 549,-1097.5 367,-1097.5 367,-1097.5 361,-1097.5 355,-1091.5 355,-1085.5 355,-1085.5 355,-838.5 355,-838.5 355,-832.5 361,-826.5 367,-826.5"/>
<text text-anchor="middle" x="458" y="-1082.3" font-family="Times New Roman,serif" font-size="14.00">User</text>
<polyline fill="none" stroke="black" points="355,-1074.5 561,-1074.5 "/>
<text text-anchor="start" x="363" y="-1059.3" font-family="Times New Roman,serif" font-size="14.00">id :integer</text>
<text text-anchor="start" x="363" y="-1044.3" font-family="Times New Roman,serif" font-size="14.00">email :string</text>
<text text-anchor="start" x="363" y="-1029.3" font-family="Times New Roman,serif" font-size="14.00">encrypted_password :string</text>
<text text-anchor="start" x="363" y="-1014.3" font-family="Times New Roman,serif" font-size="14.00">reset_password_token :string</text>
<text text-anchor="start" x="363" y="-999.3" font-family="Times New Roman,serif" font-size="14.00">reset_password_sent_at :datetime</text>
<text text-anchor="start" x="363" y="-984.3" font-family="Times New Roman,serif" font-size="14.00">remember_created_at :datetime</text>
<text text-anchor="start" x="363" y="-969.3" font-family="Times New Roman,serif" font-size="14.00">sign_in_count :integer</text>
<text text-anchor="start" x="363" y="-954.3" font-family="Times New Roman,serif" font-size="14.00">current_sign_in_at :datetime</text>
<text text-anchor="start" x="363" y="-939.3" font-family="Times New Roman,serif" font-size="14.00">last_sign_in_at :datetime</text>
<text text-anchor="start" x="363" y="-924.3" font-family="Times New Roman,serif" font-size="14.00">current_sign_in_ip :string</text>
<text text-anchor="start" x="363" y="-909.3" font-family="Times New Roman,serif" font-size="14.00">last_sign_in_ip :string</text>
<text text-anchor="start" x="363" y="-894.3" font-family="Times New Roman,serif" font-size="14.00">created_at :datetime</text>
<text text-anchor="start" x="363" y="-879.3" font-family="Times New Roman,serif" font-size="14.00">updated_at :datetime</text>
<text text-anchor="start" x="363" y="-864.3" font-family="Times New Roman,serif" font-size="14.00">phone_number :string</text>
<text text-anchor="start" x="363" y="-849.3" font-family="Times New Roman,serif" font-size="14.00">plan_id :string</text>
<text text-anchor="start" x="363" y="-834.3" font-family="Times New Roman,serif" font-size="14.00">stripe_customer_token :string</text>
</g>
<!-- Appointment&#45;&gt;User -->
<g id="edge2" class="edge"><title>Appointment&#45;&gt;User</title>
<path fill="none" stroke="#23f483" d="M401.666,-1128.94C403.942,-1121.22 406.258,-1113.45 408.59,-1105.7"/>
<ellipse fill="none" stroke="#23f483" cx="400.488" cy="-1132.95" rx="4.00001" ry="4.00001"/>
<ellipse fill="#23f483" stroke="#23f483" cx="409.769" cy="-1101.8" rx="4.00001" ry="4.00001"/>
</g>
<!-- AppointmentServiceItem -->
<g id="node4" class="node"><title>AppointmentServiceItem</title>
<path fill="none" stroke="black" d="M841.5,-23C841.5,-23 996.5,-23 996.5,-23 1002.5,-23 1008.5,-29 1008.5,-35 1008.5,-35 1008.5,-147 1008.5,-147 1008.5,-153 1002.5,-159 996.5,-159 996.5,-159 841.5,-159 841.5,-159 835.5,-159 829.5,-153 829.5,-147 829.5,-147 829.5,-35 829.5,-35 829.5,-29 835.5,-23 841.5,-23"/>
<text text-anchor="middle" x="919" y="-143.8" font-family="Times New Roman,serif" font-size="14.00">AppointmentServiceItem</text>
<polyline fill="none" stroke="black" points="829.5,-136 1008.5,-136 "/>
<text text-anchor="start" x="837.5" y="-120.8" font-family="Times New Roman,serif" font-size="14.00">id :integer</text>
<text text-anchor="start" x="837.5" y="-105.8" font-family="Times New Roman,serif" font-size="14.00">appointment_id :integer</text>
<text text-anchor="start" x="837.5" y="-90.8" font-family="Times New Roman,serif" font-size="14.00">created_at :datetime</text>
<text text-anchor="start" x="837.5" y="-75.8" font-family="Times New Roman,serif" font-size="14.00">updated_at :datetime</text>
<text text-anchor="start" x="837.5" y="-60.8" font-family="Times New Roman,serif" font-size="14.00">appointment_field_id :integer</text>
<text text-anchor="start" x="837.5" y="-45.8" font-family="Times New Roman,serif" font-size="14.00">value_name :string</text>
<text text-anchor="start" x="837.5" y="-30.8" font-family="Times New Roman,serif" font-size="14.00">field_name :string</text>
</g>
<!-- Appointment&#45;&gt;AppointmentServiceItem -->
<g id="edge3" class="edge"><title>Appointment&#45;&gt;AppointmentServiceItem</title>
<path fill="none" stroke="#05bf67" d="M450.846,-1264.41C633.153,-1260.53 1053,-1223.34 1053,-963 1053,-963 1053,-963 1053,-362 1053,-290.866 1015.22,-219.149 979.78,-167.524"/>
<ellipse fill="none" stroke="#05bf67" cx="446.61" cy="-1264.49" rx="4" ry="4"/>
<polygon fill="#05bf67" stroke="#05bf67" points="979.616,-167.29 977.579,-156.515 976.753,-163.191 973.89,-159.092 973.89,-159.092 973.89,-159.092 976.753,-163.191 970.201,-161.669 979.616,-167.29 979.616,-167.29"/>
</g>
<!-- AppointmentField -->
<g id="node3" class="node"><title>AppointmentField</title>
<path fill="none" stroke="black" d="M455.5,-235C455.5,-235 582.5,-235 582.5,-235 588.5,-235 594.5,-241 594.5,-247 594.5,-247 594.5,-479 594.5,-479 594.5,-485 588.5,-491 582.5,-491 582.5,-491 455.5,-491 455.5,-491 449.5,-491 443.5,-485 443.5,-479 443.5,-479 443.5,-247 443.5,-247 443.5,-241 449.5,-235 455.5,-235"/>
<text text-anchor="middle" x="519" y="-475.8" font-family="Times New Roman,serif" font-size="14.00">AppointmentField</text>
<polyline fill="none" stroke="black" points="443.5,-468 594.5,-468 "/>
<text text-anchor="start" x="451.5" y="-452.8" font-family="Times New Roman,serif" font-size="14.00">id :integer</text>
<text text-anchor="start" x="451.5" y="-437.8" font-family="Times New Roman,serif" font-size="14.00">field_name :string</text>
<text text-anchor="start" x="451.5" y="-422.8" font-family="Times New Roman,serif" font-size="14.00">input_type :string</text>
<text text-anchor="start" x="451.5" y="-407.8" font-family="Times New Roman,serif" font-size="14.00">price :decimal</text>
<text text-anchor="start" x="451.5" y="-392.8" font-family="Times New Roman,serif" font-size="14.00">max_field_value :integer</text>
<text text-anchor="start" x="451.5" y="-377.8" font-family="Times New Roman,serif" font-size="14.00">min_field_value :integer</text>
<text text-anchor="start" x="451.5" y="-362.8" font-family="Times New Roman,serif" font-size="14.00">created_at :datetime</text>
<text text-anchor="start" x="451.5" y="-347.8" font-family="Times New Roman,serif" font-size="14.00">updated_at :datetime</text>
<text text-anchor="start" x="451.5" y="-332.8" font-family="Times New Roman,serif" font-size="14.00">order :integer</text>
<text text-anchor="start" x="451.5" y="-317.8" font-family="Times New Roman,serif" font-size="14.00">active :boolean</text>
<text text-anchor="start" x="451.5" y="-302.8" font-family="Times New Roman,serif" font-size="14.00">extra :boolean</text>
<text text-anchor="start" x="451.5" y="-287.8" font-family="Times New Roman,serif" font-size="14.00">value_names :text</text>
<text text-anchor="start" x="451.5" y="-272.8" font-family="Times New Roman,serif" font-size="14.00">pricing_table_id :integer</text>
<text text-anchor="start" x="451.5" y="-257.8" font-family="Times New Roman,serif" font-size="14.00">display_label :boolean</text>
<text text-anchor="start" x="451.5" y="-242.8" font-family="Times New Roman,serif" font-size="14.00">service_type_id :integer</text>
</g>
<!-- AppointmentField&#45;&gt;AppointmentServiceItem -->
<g id="edge4" class="edge"><title>AppointmentField&#45;&gt;AppointmentServiceItem</title>
<path fill="none" stroke="#b4f1b3" d="M601.45,-306.346C665.116,-263.372 753.416,-203.769 820.746,-158.321"/>
<ellipse fill="none" stroke="#b4f1b3" cx="598.023" cy="-308.66" rx="4.00002" ry="4.00002"/>
<polygon fill="#b4f1b3" stroke="#b4f1b3" points="820.978,-158.165 831.784,-156.3 825.122,-155.367 829.267,-152.57 829.267,-152.57 829.267,-152.57 825.122,-155.367 826.749,-148.84 820.978,-158.165 820.978,-158.165"/>
</g>
<!-- Customer -->
<g id="node5" class="node"><title>Customer</title>
<path fill="none" stroke="black" d="M112,-583.5C112,-583.5 226,-583.5 226,-583.5 232,-583.5 238,-589.5 238,-595.5 238,-595.5 238,-722.5 238,-722.5 238,-728.5 232,-734.5 226,-734.5 226,-734.5 112,-734.5 112,-734.5 106,-734.5 100,-728.5 100,-722.5 100,-722.5 100,-595.5 100,-595.5 100,-589.5 106,-583.5 112,-583.5"/>
<text text-anchor="middle" x="169" y="-719.3" font-family="Times New Roman,serif" font-size="14.00">Customer</text>
<polyline fill="none" stroke="black" points="100,-711.5 238,-711.5 "/>
<text text-anchor="start" x="108" y="-696.3" font-family="Times New Roman,serif" font-size="14.00">id :integer</text>
<text text-anchor="start" x="108" y="-681.3" font-family="Times New Roman,serif" font-size="14.00">first_name :string</text>
<text text-anchor="start" x="108" y="-666.3" font-family="Times New Roman,serif" font-size="14.00">last_name :string</text>
<text text-anchor="start" x="108" y="-651.3" font-family="Times New Roman,serif" font-size="14.00">email :string</text>
<text text-anchor="start" x="108" y="-636.3" font-family="Times New Roman,serif" font-size="14.00">phone_number :string</text>
<text text-anchor="start" x="108" y="-621.3" font-family="Times New Roman,serif" font-size="14.00">user_id :integer</text>
<text text-anchor="start" x="108" y="-606.3" font-family="Times New Roman,serif" font-size="14.00">created_at :datetime</text>
<text text-anchor="start" x="108" y="-591.3" font-family="Times New Roman,serif" font-size="14.00">updated_at :datetime</text>
</g>
<!-- Customer&#45;&gt;Address -->
<g id="edge5" class="edge"><title>Customer&#45;&gt;Address</title>
<path fill="none" stroke="#1e7313" d="M125.193,-575.951C113.239,-549.829 101.737,-520.34 95,-492 71.1899,-391.846 68.5673,-273.728 70.5879,-191.935"/>
<ellipse fill="none" stroke="#1e7313" cx="126.888" cy="-579.598" rx="4.00002" ry="4.00002"/>
<polygon fill="#1e7313" stroke="#1e7313" points="70.589,-191.89 75.362,-182.018 70.7264,-186.892 70.8637,-181.894 70.8637,-181.894 70.8637,-181.894 70.7264,-186.892 66.3654,-181.77 70.589,-191.89 70.589,-191.89"/>
</g>
<!-- Subscription -->
<g id="node9" class="node"><title>Subscription</title>
<path fill="none" stroke="black" d="M116,-280C116,-280 224,-280 224,-280 230,-280 236,-286 236,-292 236,-292 236,-434 236,-434 236,-440 230,-446 224,-446 224,-446 116,-446 116,-446 110,-446 104,-440 104,-434 104,-434 104,-292 104,-292 104,-286 110,-280 116,-280"/>
<text text-anchor="middle" x="170" y="-430.8" font-family="Times New Roman,serif" font-size="14.00">Subscription</text>
<polyline fill="none" stroke="black" points="104,-423 236,-423 "/>
<text text-anchor="start" x="112" y="-407.8" font-family="Times New Roman,serif" font-size="14.00">id :integer</text>
<text text-anchor="start" x="112" y="-392.8" font-family="Times New Roman,serif" font-size="14.00">start :datetime</text>
<text text-anchor="start" x="112" y="-377.8" font-family="Times New Roman,serif" font-size="14.00">end :datetime</text>
<text text-anchor="start" x="112" y="-362.8" font-family="Times New Roman,serif" font-size="14.00">active :boolean</text>
<text text-anchor="start" x="112" y="-347.8" font-family="Times New Roman,serif" font-size="14.00">frequency :string</text>
<text text-anchor="start" x="112" y="-332.8" font-family="Times New Roman,serif" font-size="14.00">interval :integer</text>
<text text-anchor="start" x="112" y="-317.8" font-family="Times New Roman,serif" font-size="14.00">customer_id :integer</text>
<text text-anchor="start" x="112" y="-302.8" font-family="Times New Roman,serif" font-size="14.00">created_at :datetime</text>
<text text-anchor="start" x="112" y="-287.8" font-family="Times New Roman,serif" font-size="14.00">updated_at :datetime</text>
</g>
<!-- Customer&#45;&gt;Subscription -->
<g id="edge6" class="edge"><title>Customer&#45;&gt;Subscription</title>
<path fill="none" stroke="#661a13" d="M169.282,-575.215C169.408,-538.189 169.556,-494.398 169.686,-456.317"/>
<ellipse fill="none" stroke="#661a13" cx="169.267" cy="-579.431" rx="4" ry="4"/>
<polygon fill="#661a13" stroke="#661a13" points="169.686,-456.254 174.22,-446.27 169.703,-451.254 169.72,-446.254 169.72,-446.254 169.72,-446.254 169.703,-451.254 165.22,-446.239 169.686,-456.254 169.686,-456.254"/>
</g>
<!-- Customer&#45;&gt;Appointment -->
<g id="edge7" class="edge"><title>Customer&#45;&gt;Appointment</title>
<path fill="none" stroke="#2dbfae" d="M196.261,-742.741C228.847,-841.645 283.854,-1008.6 322.826,-1126.89"/>
<ellipse fill="none" stroke="#2dbfae" cx="194.915" cy="-738.657" rx="4.00001" ry="4.00001"/>
<polygon fill="#2dbfae" stroke="#2dbfae" points="322.911,-1127.15 321.766,-1138.05 324.476,-1131.9 326.04,-1136.65 326.04,-1136.65 326.04,-1136.65 324.476,-1131.9 330.314,-1135.24 322.911,-1127.15 322.911,-1127.15"/>
</g>
<!-- InstantBookingProfile -->
<g id="node6" class="node"><title>InstantBookingProfile</title>
<path fill="none" stroke="black" d="M606.5,-531C606.5,-531 797.5,-531 797.5,-531 803.5,-531 809.5,-537 809.5,-543 809.5,-543 809.5,-775 809.5,-775 809.5,-781 803.5,-787 797.5,-787 797.5,-787 606.5,-787 606.5,-787 600.5,-787 594.5,-781 594.5,-775 594.5,-775 594.5,-543 594.5,-543 594.5,-537 600.5,-531 606.5,-531"/>
<text text-anchor="middle" x="702" y="-771.8" font-family="Times New Roman,serif" font-size="14.00">InstantBookingProfile</text>
<polyline fill="none" stroke="black" points="594.5,-764 809.5,-764 "/>
<text text-anchor="start" x="602.5" y="-748.8" font-family="Times New Roman,serif" font-size="14.00">id :integer</text>
<text text-anchor="start" x="602.5" y="-733.8" font-family="Times New Roman,serif" font-size="14.00">user_id :integer</text>
<text text-anchor="start" x="602.5" y="-718.8" font-family="Times New Roman,serif" font-size="14.00">subdomain :string</text>
<text text-anchor="start" x="602.5" y="-703.8" font-family="Times New Roman,serif" font-size="14.00">advance_booking_days :integer</text>
<text text-anchor="start" x="602.5" y="-688.8" font-family="Times New Roman,serif" font-size="14.00">default_appointment_length :integer</text>
<text text-anchor="start" x="602.5" y="-673.8" font-family="Times New Roman,serif" font-size="14.00">embed :boolean</text>
<text text-anchor="start" x="602.5" y="-658.8" font-family="Times New Roman,serif" font-size="14.00">custom_css :text</text>
<text text-anchor="start" x="602.5" y="-643.8" font-family="Times New Roman,serif" font-size="14.00">about_us :text</text>
<text text-anchor="start" x="602.5" y="-628.8" font-family="Times New Roman,serif" font-size="14.00">created_at :datetime</text>
<text text-anchor="start" x="602.5" y="-613.8" font-family="Times New Roman,serif" font-size="14.00">updated_at :datetime</text>
<text text-anchor="start" x="602.5" y="-598.8" font-family="Times New Roman,serif" font-size="14.00">show_price :boolean</text>
<text text-anchor="start" x="602.5" y="-583.8" font-family="Times New Roman,serif" font-size="14.00">show_about_us :boolean</text>
<text text-anchor="start" x="602.5" y="-568.8" font-family="Times New Roman,serif" font-size="14.00">compact :boolean</text>
<text text-anchor="start" x="602.5" y="-553.8" font-family="Times New Roman,serif" font-size="14.00">font_urls :text</text>
<text text-anchor="start" x="602.5" y="-538.8" font-family="Times New Roman,serif" font-size="14.00">button_color_class :string</text>
</g>
<!-- PricingTable -->
<g id="node7" class="node"><title>PricingTable</title>
<path fill="none" stroke="black" d="M418,-598.5C418,-598.5 526,-598.5 526,-598.5 532,-598.5 538,-604.5 538,-610.5 538,-610.5 538,-707.5 538,-707.5 538,-713.5 532,-719.5 526,-719.5 526,-719.5 418,-719.5 418,-719.5 412,-719.5 406,-713.5 406,-707.5 406,-707.5 406,-610.5 406,-610.5 406,-604.5 412,-598.5 418,-598.5"/>
<text text-anchor="middle" x="472" y="-704.3" font-family="Times New Roman,serif" font-size="14.00">PricingTable</text>
<polyline fill="none" stroke="black" points="406,-696.5 538,-696.5 "/>
<text text-anchor="start" x="414" y="-681.3" font-family="Times New Roman,serif" font-size="14.00">id :integer</text>
<text text-anchor="start" x="414" y="-666.3" font-family="Times New Roman,serif" font-size="14.00">user_id :integer</text>
<text text-anchor="start" x="414" y="-651.3" font-family="Times New Roman,serif" font-size="14.00">name :string</text>
<text text-anchor="start" x="414" y="-636.3" font-family="Times New Roman,serif" font-size="14.00">pricing_table :text</text>
<text text-anchor="start" x="414" y="-621.3" font-family="Times New Roman,serif" font-size="14.00">created_at :datetime</text>
<text text-anchor="start" x="414" y="-606.3" font-family="Times New Roman,serif" font-size="14.00">updated_at :datetime</text>
</g>
<!-- PricingTable&#45;&gt;AppointmentField -->
<g id="edge8" class="edge"><title>PricingTable&#45;&gt;AppointmentField</title>
<path fill="none" stroke="#b91c0d" d="M482.869,-590.014C487.114,-563.454 492.143,-531.998 497.079,-501.125"/>
<ellipse fill="none" stroke="#b91c0d" cx="482.199" cy="-594.2" rx="4.00001" ry="4.00001"/>
<polygon fill="#b91c0d" stroke="#b91c0d" points="497.098,-501.004 503.12,-491.84 497.887,-496.067 498.677,-491.129 498.677,-491.129 498.677,-491.129 497.887,-496.067 494.233,-490.419 497.098,-501.004 497.098,-501.004"/>
</g>
<!-- ServiceType -->
<g id="node8" class="node"><title>ServiceType</title>
<path fill="none" stroke="black" d="M268,-598.5C268,-598.5 376,-598.5 376,-598.5 382,-598.5 388,-604.5 388,-610.5 388,-610.5 388,-707.5 388,-707.5 388,-713.5 382,-719.5 376,-719.5 376,-719.5 268,-719.5 268,-719.5 262,-719.5 256,-713.5 256,-707.5 256,-707.5 256,-610.5 256,-610.5 256,-604.5 262,-598.5 268,-598.5"/>
<text text-anchor="middle" x="322" y="-704.3" font-family="Times New Roman,serif" font-size="14.00">ServiceType</text>
<polyline fill="none" stroke="black" points="256,-696.5 388,-696.5 "/>
<text text-anchor="start" x="264" y="-681.3" font-family="Times New Roman,serif" font-size="14.00">id :integer</text>
<text text-anchor="start" x="264" y="-666.3" font-family="Times New Roman,serif" font-size="14.00">user_id :integer</text>
<text text-anchor="start" x="264" y="-651.3" font-family="Times New Roman,serif" font-size="14.00">name :string</text>
<text text-anchor="start" x="264" y="-636.3" font-family="Times New Roman,serif" font-size="14.00">created_at :datetime</text>
<text text-anchor="start" x="264" y="-621.3" font-family="Times New Roman,serif" font-size="14.00">updated_at :datetime</text>
<text text-anchor="start" x="264" y="-606.3" font-family="Times New Roman,serif" font-size="14.00">base_price :decimal</text>
</g>
<!-- ServiceType&#45;&gt;AppointmentField -->
<g id="edge9" class="edge"><title>ServiceType&#45;&gt;AppointmentField</title>
<path fill="none" stroke="#c07f44" d="M359.332,-591.29C370.977,-571.316 384.147,-549.536 397,-530 409.642,-510.784 423.632,-490.746 437.494,-471.513"/>
<ellipse fill="none" stroke="#c07f44" cx="357.287" cy="-594.813" rx="4.00002" ry="4.00002"/>
<polygon fill="#c07f44" stroke="#c07f44" points="437.559,-471.423 447.068,-465.962 440.491,-467.373 443.423,-463.323 443.423,-463.323 443.423,-463.323 440.491,-467.373 439.779,-460.684 437.559,-471.423 437.559,-471.423"/>
</g>
<!-- ServiceType&#45;&gt;Appointment -->
<g id="edge10" class="edge"><title>ServiceType&#45;&gt;Appointment</title>
<path fill="none" stroke="#b8dceb" d="M324.093,-727.744C327.128,-813.915 333.772,-967.25 346,-1098 346.874,-1107.34 347.877,-1116.97 348.964,-1126.66"/>
<ellipse fill="none" stroke="#b8dceb" cx="323.95" cy="-723.615" rx="4" ry="4"/>
<polygon fill="#b8dceb" stroke="#b8dceb" points="348.984,-1126.84 345.653,-1137.29 349.554,-1131.81 350.124,-1136.78 350.124,-1136.78 350.124,-1136.78 349.554,-1131.81 354.595,-1136.26 348.984,-1126.84 348.984,-1126.84"/>
</g>
<!-- Subscription&#45;&gt;Address -->
<g id="edge11" class="edge"><title>Subscription&#45;&gt;Address</title>
<path fill="none" stroke="#4d3928" d="M138.726,-272.17C129.465,-245.571 119.284,-216.327 109.868,-189.279"/>
<ellipse fill="none" stroke="#4d3928" cx="140.099" cy="-276.114" rx="4.00001" ry="4.00001"/>
<ellipse fill="#4d3928" stroke="#4d3928" cx="108.549" cy="-185.49" rx="4.00001" ry="4.00001"/>
<text text-anchor="middle" x="140" y="-204.3" font-family="Times New Roman,serif" font-size="14.00">address</text>
</g>
<!-- User&#45;&gt;Customer -->
<g id="edge12" class="edge"><title>User&#45;&gt;Customer</title>
<path fill="none" stroke="#bc9b38" d="M348.497,-882.772C313.805,-855.081 276.772,-822.243 247,-788 235.187,-774.413 224.062,-758.82 214.115,-743.299"/>
<ellipse fill="none" stroke="#bc9b38" cx="351.811" cy="-885.397" rx="4.00002" ry="4.00002"/>
<polygon fill="#bc9b38" stroke="#bc9b38" points="214.032,-743.165 212.525,-732.303 211.373,-738.931 208.714,-734.696 208.714,-734.696 208.714,-734.696 211.373,-738.931 204.903,-737.089 214.032,-743.165 214.032,-743.165"/>
</g>
<!-- User&#45;&gt;ServiceType -->
<g id="edge13" class="edge"><title>User&#45;&gt;ServiceType</title>
<path fill="none" stroke="#5b8737" d="M393.786,-818.879C379.619,-787.525 365.233,-755.684 353.096,-728.823"/>
<ellipse fill="none" stroke="#5b8737" cx="395.513" cy="-822.702" rx="4.00002" ry="4.00002"/>
<polygon fill="#5b8737" stroke="#5b8737" points="353.019,-728.651 353.002,-717.685 350.96,-724.095 348.901,-719.538 348.901,-719.538 348.901,-719.538 350.96,-724.095 344.8,-721.391 353.019,-728.651 353.019,-728.651"/>
</g>
<!-- User&#45;&gt;AppointmentField -->
<g id="edge14" class="edge"><title>User&#45;&gt;AppointmentField</title>
<path fill="none" stroke="#f933f0" d="M538.308,-816.859C541.719,-807.268 544.675,-797.602 547,-788 569.731,-694.126 561.887,-585.368 548.797,-501.506"/>
<polygon fill="#f933f0" stroke="#f933f0" points="538.238,-817.047 530.533,-824.85 536.494,-821.733 534.75,-826.419 534.75,-826.419 534.75,-826.419 536.494,-821.733 538.968,-827.988 538.238,-817.047 538.238,-817.047"/>
<polygon fill="#f933f0" stroke="#f933f0" points="548.761,-501.278 551.62,-490.692 547.969,-496.342 547.176,-491.405 547.176,-491.405 547.176,-491.405 547.969,-496.342 542.733,-492.118 548.761,-501.278 548.761,-501.278"/>
</g>
<!-- User&#45;&gt;Appointment -->
<g id="edge15" class="edge"><title>User&#45;&gt;Appointment</title>
<path fill="none" stroke="#1401e4" d="M421.396,-1107.98C419.497,-1114.36 417.578,-1120.76 415.653,-1127.12"/>
<polygon fill="#1401e4" stroke="#1401e4" points="421.522,-1107.56 428.677,-1099.25 422.942,-1102.76 424.362,-1097.97 424.362,-1097.97 424.362,-1097.97 422.942,-1102.76 420.047,-1096.69 421.522,-1107.56 421.522,-1107.56"/>
<polygon fill="#1401e4" stroke="#1401e4" points="415.623,-1127.22 408.41,-1135.48 414.169,-1132 412.715,-1136.79 412.715,-1136.79 412.715,-1136.79 414.169,-1132 417.021,-1138.09 415.623,-1127.22 415.623,-1127.22"/>
</g>
<!-- User&#45;&gt;PricingTable -->
<g id="edge16" class="edge"><title>User&#45;&gt;PricingTable</title>
<path fill="none" stroke="#7cd79e" d="M464.651,-817.999C466.079,-787.306 467.526,-756.196 468.754,-729.792"/>
<ellipse fill="none" stroke="#7cd79e" cx="464.449" cy="-822.351" rx="4" ry="4"/>
<polygon fill="#7cd79e" stroke="#7cd79e" points="468.766,-729.527 473.726,-719.747 468.998,-724.533 469.231,-719.538 469.231,-719.538 469.231,-719.538 468.998,-724.533 464.736,-719.329 468.766,-729.527 468.766,-729.527"/>
</g>
<!-- UserProfile -->
<g id="node11" class="node"><title>UserProfile</title>
<path fill="none" stroke="black" d="M839.5,-591C839.5,-591 1012.5,-591 1012.5,-591 1018.5,-591 1024.5,-597 1024.5,-603 1024.5,-603 1024.5,-715 1024.5,-715 1024.5,-721 1018.5,-727 1012.5,-727 1012.5,-727 839.5,-727 839.5,-727 833.5,-727 827.5,-721 827.5,-715 827.5,-715 827.5,-603 827.5,-603 827.5,-597 833.5,-591 839.5,-591"/>
<text text-anchor="middle" x="926" y="-711.8" font-family="Times New Roman,serif" font-size="14.00">UserProfile</text>
<polyline fill="none" stroke="black" points="827.5,-704 1024.5,-704 "/>
<text text-anchor="start" x="835.5" y="-688.8" font-family="Times New Roman,serif" font-size="14.00">id :integer</text>
<text text-anchor="start" x="835.5" y="-673.8" font-family="Times New Roman,serif" font-size="14.00">user_id :integer</text>
<text text-anchor="start" x="835.5" y="-658.8" font-family="Times New Roman,serif" font-size="14.00">company_email :string</text>
<text text-anchor="start" x="835.5" y="-643.8" font-family="Times New Roman,serif" font-size="14.00">company_phone_number :string</text>
<text text-anchor="start" x="835.5" y="-628.8" font-family="Times New Roman,serif" font-size="14.00">company_name :string</text>
<text text-anchor="start" x="835.5" y="-613.8" font-family="Times New Roman,serif" font-size="14.00">created_at :datetime</text>
<text text-anchor="start" x="835.5" y="-598.8" font-family="Times New Roman,serif" font-size="14.00">updated_at :datetime</text>
</g>
<!-- User&#45;&gt;UserProfile -->
<g id="edge17" class="edge"><title>User&#45;&gt;UserProfile</title>
<path fill="none" stroke="#5881ee" d="M568.709,-921.968C643.627,-892.293 742.337,-846.596 818,-788 838.017,-772.498 856.912,-752.733 873.132,-733.398"/>
<ellipse fill="none" stroke="#5881ee" cx="564.799" cy="-923.506" rx="4.00001" ry="4.00001"/>
<ellipse fill="#5881ee" stroke="#5881ee" cx="875.755" cy="-730.225" rx="4.00002" ry="4.00002"/>
</g>
<!-- User&#45;&gt;InstantBookingProfile -->
<g id="edge18" class="edge"><title>User&#45;&gt;InstantBookingProfile</title>
<path fill="none" stroke="#9c271b" d="M566.406,-827.269C575.508,-816.042 584.711,-804.689 593.81,-793.463"/>
<ellipse fill="none" stroke="#9c271b" cx="563.643" cy="-830.678" rx="4.00002" ry="4.00002"/>
<ellipse fill="#9c271b" stroke="#9c271b" cx="596.335" cy="-790.349" rx="4.00002" ry="4.00002"/>
</g>
</g>
</svg>
